<svg width="64" height="64" viewBox="0 0 608 770" fill="none" xmlns="http://www.w3.org/2000/svg">
<g filter="url(#filter0_d)">
<path d="M396.4 96.8664H450.4L440.8 159.507L396.4 166.466V96.8664Z" fill="white"/>
<path d="M396.4 96.8664H450.4L440.8 159.507L396.4 166.466V96.8664Z" fill="white"/>
<path d="M396.4 96.8664H450.4L440.8 159.507L396.4 166.466V96.8664Z" fill="white"/>
<path fill-rule="evenodd" clip-rule="evenodd" d="M461.758 0L364.334 20.708L385.042 118.132L482.466 97.4235L461.758 0ZM445.489 22.4664L386.8 34.9411L399.275 93.6299L457.964 81.1552L445.489 22.4664Z" fill="white"/>
<path fill-rule="evenodd" clip-rule="evenodd" d="M461.758 0L364.334 20.708L385.042 118.132L482.466 97.4235L461.758 0ZM445.489 22.4664L386.8 34.9411L399.275 93.6299L457.964 81.1552L445.489 22.4664Z" fill="white"/>
<path fill-rule="evenodd" clip-rule="evenodd" d="M461.758 0L364.334 20.708L385.042 118.132L482.466 97.4235L461.758 0ZM445.489 22.4664L386.8 34.9411L399.275 93.6299L457.964 81.1552L445.489 22.4664Z" fill="white"/>
<path d="M408.4 47.8563L431.876 42.8664L436.865 66.3419L413.39 71.3318L408.4 47.8563Z" fill="white"/>
<path d="M408.4 47.8563L431.876 42.8664L436.865 66.3419L413.39 71.3318L408.4 47.8563Z" fill="white"/>
<path d="M408.4 47.8563L431.876 42.8664L436.865 66.3419L413.39 71.3318L408.4 47.8563Z" fill="white"/>
</g>
<g filter="url(#filter1_d)">
<path d="M211.6 96.8664H157.6L167.2 159.507L211.6 166.466V96.8664Z" fill="white"/>
<path d="M211.6 96.8664H157.6L167.2 159.507L211.6 166.466V96.8664Z" fill="white"/>
<path d="M211.6 96.8664H157.6L167.2 159.507L211.6 166.466V96.8664Z" fill="white"/>
<path fill-rule="evenodd" clip-rule="evenodd" d="M243.666 20.708L146.242 0L125.534 97.4235L222.958 118.132L243.666 20.708ZM160.475 22.4664L219.164 34.9411L206.689 93.6299L148 81.1552L160.475 22.4664Z" fill="white"/>
<path fill-rule="evenodd" clip-rule="evenodd" d="M243.666 20.708L146.242 0L125.534 97.4235L222.958 118.132L243.666 20.708ZM160.475 22.4664L219.164 34.9411L206.689 93.6299L148 81.1552L160.475 22.4664Z" fill="white"/>
<path fill-rule="evenodd" clip-rule="evenodd" d="M243.666 20.708L146.242 0L125.534 97.4235L222.958 118.132L243.666 20.708ZM160.475 22.4664L219.164 34.9411L206.689 93.6299L148 81.1552L160.475 22.4664Z" fill="white"/>
<path d="M198.764 48.1411L175.288 43.1512L170.298 66.6267L193.774 71.6166L198.764 48.1411Z" fill="white"/>
<path d="M198.764 48.1411L175.288 43.1512L170.298 66.6267L193.774 71.6166L198.764 48.1411Z" fill="white"/>
<path d="M198.764 48.1411L175.288 43.1512L170.298 66.6267L193.774 71.6166L198.764 48.1411Z" fill="white"/>
</g>
<g filter="url(#filter2_d)">
<path fill-rule="evenodd" clip-rule="evenodd" d="M4 326.066C4 247.862 67.3965 184.466 145.6 184.466H462.4C540.604 184.466 604 247.862 604 326.066V604.841C604 677.783 548.588 738.792 475.981 745.788L324.463 760.388C315.64 761.238 306.758 761.258 297.931 760.447L132.65 745.268C59.7708 738.574 4 677.447 4 604.261V326.066ZM256.787 417.089C256.787 462.721 227.062 499.712 190.393 499.712C153.725 499.712 124 462.721 124 417.089C124 371.458 153.725 334.466 190.393 334.466C227.062 334.466 256.787 371.458 256.787 417.089ZM417.607 499.712C454.275 499.712 484 462.721 484 417.089C484 371.458 454.275 334.466 417.607 334.466C380.938 334.466 351.213 371.458 351.213 417.089C351.213 462.721 380.938 499.712 417.607 499.712ZM450.406 624.172C450.406 593.106 425.223 567.922 394.156 567.922H327.67C295.535 567.923 271.421 595.012 271.42 624.172C271.42 629.055 272.131 633.747 273.348 638.235H285.483C291.963 638.234 295.323 634.222 298.121 630.88C298.76 630.117 299.369 629.389 299.98 628.752C299.726 627.259 299.545 625.741 299.545 624.172C299.545 609.209 312.034 596.047 327.67 596.047H394.155C409.667 596.047 422.28 608.661 422.28 624.172C422.28 639.684 409.667 652.297 394.155 652.297H350.209C349.636 653.123 348.998 654.264 348.221 655.656C345.09 661.263 339.691 670.932 327.114 680.367C327.208 680.367 327.298 680.381 327.388 680.395C327.481 680.408 327.573 680.422 327.67 680.423H394.156C425.222 680.422 450.405 655.239 450.406 624.172ZM339.805 610.11C341.021 614.597 341.732 619.289 341.732 624.172C341.732 653.987 317.021 680.422 285.482 680.422H213.844C182.778 680.421 157.594 655.238 157.594 624.172C157.594 593.106 182.778 567.923 213.844 567.922L285.482 567.921C285.579 567.921 285.672 567.935 285.765 567.949C285.855 567.963 285.946 567.977 286.039 567.977C273.462 577.411 268.063 587.08 264.932 592.687C264.155 594.079 263.517 595.221 262.945 596.047L213.845 596.047C198.333 596.047 185.719 608.66 185.72 624.172C185.72 639.683 198.333 652.297 213.845 652.297H285.483C301.12 652.297 313.608 639.136 313.608 624.172C313.608 622.603 313.428 621.085 313.173 619.591C313.783 618.954 314.393 618.226 315.031 617.464C317.83 614.122 321.189 610.109 327.67 610.11H339.805Z" fill="white"/>
<path fill-rule="evenodd" clip-rule="evenodd" d="M4 326.066C4 247.862 67.3965 184.466 145.6 184.466H462.4C540.604 184.466 604 247.862 604 326.066V604.841C604 677.783 548.588 738.792 475.981 745.788L324.463 760.388C315.64 761.238 306.758 761.258 297.931 760.447L132.65 745.268C59.7708 738.574 4 677.447 4 604.261V326.066ZM256.787 417.089C256.787 462.721 227.062 499.712 190.393 499.712C153.725 499.712 124 462.721 124 417.089C124 371.458 153.725 334.466 190.393 334.466C227.062 334.466 256.787 371.458 256.787 417.089ZM417.607 499.712C454.275 499.712 484 462.721 484 417.089C484 371.458 454.275 334.466 417.607 334.466C380.938 334.466 351.213 371.458 351.213 417.089C351.213 462.721 380.938 499.712 417.607 499.712ZM450.406 624.172C450.406 593.106 425.223 567.922 394.156 567.922H327.67C295.535 567.923 271.421 595.012 271.42 624.172C271.42 629.055 272.131 633.747 273.348 638.235H285.483C291.963 638.234 295.323 634.222 298.121 630.88C298.76 630.117 299.369 629.389 299.98 628.752C299.726 627.259 299.545 625.741 299.545 624.172C299.545 609.209 312.034 596.047 327.67 596.047H394.155C409.667 596.047 422.28 608.661 422.28 624.172C422.28 639.684 409.667 652.297 394.155 652.297H350.209C349.636 653.123 348.998 654.264 348.221 655.656C345.09 661.263 339.691 670.932 327.114 680.367C327.208 680.367 327.298 680.381 327.388 680.395C327.481 680.408 327.573 680.422 327.67 680.423H394.156C425.222 680.422 450.405 655.239 450.406 624.172ZM339.805 610.11C341.021 614.597 341.732 619.289 341.732 624.172C341.732 653.987 317.021 680.422 285.482 680.422H213.844C182.778 680.421 157.594 655.238 157.594 624.172C157.594 593.106 182.778 567.923 213.844 567.922L285.482 567.921C285.579 567.921 285.672 567.935 285.765 567.949C285.855 567.963 285.946 567.977 286.039 567.977C273.462 577.411 268.063 587.08 264.932 592.687C264.155 594.079 263.517 595.221 262.945 596.047L213.845 596.047C198.333 596.047 185.719 608.66 185.72 624.172C185.72 639.683 198.333 652.297 213.845 652.297H285.483C301.12 652.297 313.608 639.136 313.608 624.172C313.608 622.603 313.428 621.085 313.173 619.591C313.783 618.954 314.393 618.226 315.031 617.464C317.83 614.122 321.189 610.109 327.67 610.11H339.805Z" fill="white"/>
<path fill-rule="evenodd" clip-rule="evenodd" d="M4 326.066C4 247.862 67.3965 184.466 145.6 184.466H462.4C540.604 184.466 604 247.862 604 326.066V604.841C604 677.783 548.588 738.792 475.981 745.788L324.463 760.388C315.64 761.238 306.758 761.258 297.931 760.447L132.65 745.268C59.7708 738.574 4 677.447 4 604.261V326.066ZM256.787 417.089C256.787 462.721 227.062 499.712 190.393 499.712C153.725 499.712 124 462.721 124 417.089C124 371.458 153.725 334.466 190.393 334.466C227.062 334.466 256.787 371.458 256.787 417.089ZM417.607 499.712C454.275 499.712 484 462.721 484 417.089C484 371.458 454.275 334.466 417.607 334.466C380.938 334.466 351.213 371.458 351.213 417.089C351.213 462.721 380.938 499.712 417.607 499.712ZM450.406 624.172C450.406 593.106 425.223 567.922 394.156 567.922H327.67C295.535 567.923 271.421 595.012 271.42 624.172C271.42 629.055 272.131 633.747 273.348 638.235H285.483C291.963 638.234 295.323 634.222 298.121 630.88C298.76 630.117 299.369 629.389 299.98 628.752C299.726 627.259 299.545 625.741 299.545 624.172C299.545 609.209 312.034 596.047 327.67 596.047H394.155C409.667 596.047 422.28 608.661 422.28 624.172C422.28 639.684 409.667 652.297 394.155 652.297H350.209C349.636 653.123 348.998 654.264 348.221 655.656C345.09 661.263 339.691 670.932 327.114 680.367C327.208 680.367 327.298 680.381 327.388 680.395C327.481 680.408 327.573 680.422 327.67 680.423H394.156C425.222 680.422 450.405 655.239 450.406 624.172ZM339.805 610.11C341.021 614.597 341.732 619.289 341.732 624.172C341.732 653.987 317.021 680.422 285.482 680.422H213.844C182.778 680.421 157.594 655.238 157.594 624.172C157.594 593.106 182.778 567.923 213.844 567.922L285.482 567.921C285.579 567.921 285.672 567.935 285.765 567.949C285.855 567.963 285.946 567.977 286.039 567.977C273.462 577.411 268.063 587.08 264.932 592.687C264.155 594.079 263.517 595.221 262.945 596.047L213.845 596.047C198.333 596.047 185.719 608.66 185.72 624.172C185.72 639.683 198.333 652.297 213.845 652.297H285.483C301.12 652.297 313.608 639.136 313.608 624.172C313.608 622.603 313.428 621.085 313.173 619.591C313.783 618.954 314.393 618.226 315.031 617.464C317.83 614.122 321.189 610.109 327.67 610.11H339.805Z" fill="white"/>
</g>
<defs>
<filter id="filter0_d" x="360.334" y="0" width="126.132" height="174.466" filterUnits="userSpaceOnUse" color-interpolation-filters="sRGB">
<feFlood flood-opacity="0" result="BackgroundImageFix"/>
<feColorMatrix in="SourceAlpha" type="matrix" values="0 0 0 0 0 0 0 0 0 0 0 0 0 0 0 0 0 0 127 0"/>
<feOffset dy="4"/>
<feGaussianBlur stdDeviation="2"/>
<feColorMatrix type="matrix" values="0 0 0 0 0 0 0 0 0 0 0 0 0 0 0 0 0 0 0.1 0"/>
<feBlend mode="normal" in2="BackgroundImageFix" result="effect1_dropShadow"/>
<feBlend mode="normal" in="SourceGraphic" in2="effect1_dropShadow" result="shape"/>
</filter>
<filter id="filter1_d" x="121.534" y="0" width="126.132" height="174.466" filterUnits="userSpaceOnUse" color-interpolation-filters="sRGB">
<feFlood flood-opacity="0" result="BackgroundImageFix"/>
<feColorMatrix in="SourceAlpha" type="matrix" values="0 0 0 0 0 0 0 0 0 0 0 0 0 0 0 0 0 0 127 0"/>
<feOffset dy="4"/>
<feGaussianBlur stdDeviation="2"/>
<feColorMatrix type="matrix" values="0 0 0 0 0 0 0 0 0 0 0 0 0 0 0 0 0 0 0.1 0"/>
<feBlend mode="normal" in2="BackgroundImageFix" result="effect1_dropShadow"/>
<feBlend mode="normal" in="SourceGraphic" in2="effect1_dropShadow" result="shape"/>
</filter>
<filter id="filter2_d" x="0" y="184.466" width="608" height="584.575" filterUnits="userSpaceOnUse" color-interpolation-filters="sRGB">
<feFlood flood-opacity="0" result="BackgroundImageFix"/>
<feColorMatrix in="SourceAlpha" type="matrix" values="0 0 0 0 0 0 0 0 0 0 0 0 0 0 0 0 0 0 127 0"/>
<feOffset dy="4"/>
<feGaussianBlur stdDeviation="2"/>
<feColorMatrix type="matrix" values="0 0 0 0 0 0 0 0 0 0 0 0 0 0 0 0 0 0 0.1 0"/>
<feBlend mode="normal" in2="BackgroundImageFix" result="effect1_dropShadow"/>
<feBlend mode="normal" in="SourceGraphic" in2="effect1_dropShadow" result="shape"/>
</filter>
</defs>
</svg>
