<?xml version="1.0" standalone="no"?>
<!DOCTYPE svg PUBLIC "-//W3C//DTD SVG 20010904//EN"
 "http://www.w3.org/TR/2001/REC-SVG-20010904/DTD/svg10.dtd">
<svg version="1.0" xmlns="http://www.w3.org/2000/svg"
 width="770.000000pt" height="770.000000pt" viewBox="0 0 770.000000 770.000000"
 preserveAspectRatio="xMidYMid meet">
<metadata>
Created by potrace 1.11, written by Peter Selinger 2001-2013
</metadata>
<g transform="translate(0.000000,770.000000) scale(0.100000,-0.100000)"
fill="#000000" stroke="none">
<path d="M2270 7695 c0 -7 -68 -331 -81 -385 -6 -25 -12 -56 -15 -70 -2 -14
-19 -99 -39 -190 -20 -91 -39 -178 -41 -195 -3 -16 -9 -43 -14 -59 -6 -16 -10
-39 -10 -51 0 -22 9 -26 138 -51 8 -1 21 -6 30 -9 9 -4 37 -9 62 -11 25 -2 46
-8 48 -13 2 -5 11 -7 21 -4 22 6 36 -31 46 -117 3 -30 8 -62 10 -70 3 -8 7
-35 10 -60 3 -25 8 -58 11 -75 6 -33 8 -45 18 -125 4 -30 8 -59 8 -65 0 -37
23 -46 142 -61 22 -3 44 -8 49 -11 4 -3 29 -6 55 -8 26 -2 56 -6 67 -8 11 -3
42 -8 69 -11 27 -4 54 -8 60 -9 8 -1 11 71 12 248 l1 250 39 -3 c21 -2 44 -8
50 -13 7 -6 16 -4 24 6 7 8 10 15 7 15 -3 0 -1 16 5 36 5 20 11 46 14 58 10
56 17 90 41 196 14 63 27 126 30 140 2 14 9 45 14 70 6 25 13 56 15 70 3 13
12 56 20 95 9 38 18 81 20 95 3 14 13 62 23 107 l19 83 -37 9 c-20 5 -49 12
-66 15 -44 9 -58 12 -190 41 -170 36 -399 85 -476 100 -36 7 -84 18 -105 23
-59 15 -104 22 -104 17z m305 -255 c55 -11 114 -23 130 -26 17 -3 43 -9 59
-14 16 -6 40 -10 53 -10 13 0 22 -4 19 -8 -2 -4 7 -7 22 -6 14 0 53 -6 85 -14
51 -13 58 -18 54 -36 -7 -32 -47 -216 -51 -240 -2 -11 -14 -64 -25 -116 -12
-52 -24 -110 -27 -129 -8 -50 -23 -83 -33 -77 -8 6 -207 49 -447 98 -56 11
-107 23 -112 27 -8 5 -8 20 -1 51 6 25 13 56 15 70 6 30 42 199 58 268 2 9 12
57 21 105 l18 88 31 -5 c17 -2 76 -14 131 -26z"/>
<path d="M2554 7232 c-4 -20 -8 -44 -9 -52 -2 -8 -9 -45 -18 -82 -14 -65 -14
-68 4 -68 11 0 19 -4 19 -8 0 -4 12 -7 26 -7 14 1 49 -5 77 -12 96 -26 93 -26
103 19 3 13 9 43 14 68 6 25 13 56 15 70 3 14 7 30 10 37 8 22 -28 34 -180 59
-16 3 -35 7 -42 9 -6 2 -14 -12 -19 -33z"/>
<path d="M5398 7695 c-4 -4 -38 -12 -138 -31 -14 -3 -131 -27 -260 -55 -129
-28 -300 -64 -380 -80 -80 -16 -150 -31 -156 -34 -11 -3 -6 -39 22 -160 3 -11
7 -31 9 -45 2 -14 11 -52 19 -85 8 -33 17 -73 20 -90 2 -16 8 -41 11 -55 3
-14 8 -34 10 -45 1 -11 20 -96 40 -190 44 -203 43 -198 53 -255 8 -49 14 -52
90 -36 22 4 32 3 33 -6 0 -7 2 -119 2 -248 1 -129 4 -237 7 -239 5 -3 92 7
135 16 44 9 92 15 130 17 22 1 45 5 50 8 6 3 36 9 68 13 43 6 57 11 58 24 0 9
2 24 4 33 2 9 6 34 9 55 3 21 7 47 10 58 2 11 7 43 10 70 4 28 9 61 11 75 3
14 7 41 9 60 8 69 27 175 32 179 2 3 10 6 17 8 7 1 31 7 55 13 23 5 59 13 79
16 20 3 46 9 57 14 12 4 24 8 29 8 4 0 25 3 47 7 44 7 46 12 30 78 -5 23 -37
173 -70 332 -104 496 -123 575 -135 575 -6 0 -14 -2 -17 -5z m-113 -317 c10
-51 20 -98 21 -103 1 -6 9 -42 18 -80 34 -153 64 -300 60 -304 -4 -4 -232 -56
-289 -65 -16 -3 -81 -17 -144 -31 -106 -23 -151 -30 -151 -22 0 2 -9 48 -21
103 -11 54 -23 110 -25 124 -3 14 -7 32 -9 40 -3 8 -18 80 -35 159 -20 98 -27
148 -20 155 5 5 10 7 10 4 0 -3 28 0 63 8 34 9 82 19 107 24 25 5 88 19 140
30 116 25 133 28 165 33 14 3 29 7 32 11 3 3 18 6 33 6 25 0 27 -4 45 -92z"/>
<path d="M5099 7266 c-2 -2 -20 -7 -39 -10 -19 -3 -61 -12 -92 -20 -32 -7 -60
-10 -64 -7 -10 9 5 -100 21 -153 16 -51 15 -48 15 -77 0 -11 4 -18 8 -15 5 3
24 8 43 11 19 3 51 10 73 16 21 6 44 8 52 5 8 -3 14 -1 14 4 0 5 10 10 23 12
26 4 26 10 -4 146 -18 82 -32 106 -50 88z"/>
<path d="M2197 5854 c-1 -1 -33 -4 -72 -8 -319 -28 -618 -169 -850 -400 -110
-111 -126 -130 -191 -228 -99 -150 -172 -328 -210 -513 -21 -104 -24 -306 -23
-1675 1 -1495 2 -1522 33 -1690 20 -105 120 -345 180 -433 14 -21 26 -42 26
-47 0 -4 4 -10 8 -12 4 -2 30 -32 56 -66 46 -61 214 -232 227 -232 3 0 19 -11
35 -25 16 -14 46 -35 66 -47 20 -12 34 -26 31 -31 -4 -6 -1 -7 7 -2 7 4 15 4
19 -1 3 -5 47 -29 96 -54 50 -24 92 -46 95 -49 3 -4 10 -7 15 -7 12 -2 144
-42 165 -51 8 -3 18 -5 22 -5 4 1 31 -3 60 -10 29 -6 59 -11 66 -9 6 1 12 -2
12 -6 0 -4 23 -7 50 -6 28 1 49 -1 46 -5 -2 -4 21 -7 52 -8 62 -1 208 -12 257
-19 17 -2 70 -7 120 -10 49 -4 92 -8 95 -10 3 -2 30 -4 60 -6 30 -1 61 -7 68
-12 8 -6 12 -6 12 2 0 7 4 10 9 7 9 -6 124 -19 174 -20 15 -1 27 -5 27 -10 0
-5 6 -3 13 3 8 6 16 8 19 6 6 -6 72 -13 131 -14 28 -1 36 -4 31 -13 -5 -9 -2
-9 9 1 9 7 17 10 17 5 0 -5 28 -9 63 -10 34 -1 85 -4 112 -7 28 -3 86 -9 130
-12 44 -4 100 -9 125 -11 174 -20 279 -20 460 0 19 3 67 7 105 11 39 3 108 10
155 15 47 5 119 12 160 15 41 4 77 8 79 11 2 2 10 -4 18 -14 11 -14 12 -14 7
-1 -4 14 3 17 43 18 26 0 59 3 71 6 13 2 55 7 94 10 38 3 74 7 78 10 5 3 12 1
15 -5 5 -8 11 -8 19 -1 7 6 49 13 94 15 45 3 85 7 89 9 5 2 31 5 58 6 28 1 61
3 75 6 32 6 161 17 222 19 27 0 48 3 48 7 0 3 10 5 23 5 12 1 40 4 62 8 22 4
53 10 68 12 41 8 174 49 233 72 29 12 55 19 58 16 3 -2 4 -1 1 2 -2 4 19 18
48 31 198 92 435 309 561 512 24 39 47 67 51 63 5 -4 5 -2 2 4 -3 6 4 30 16
55 13 24 30 64 39 89 10 25 23 59 29 75 18 44 16 39 48 185 l30 135 -2 1560
c-2 858 -6 1576 -11 1595 -67 301 -146 475 -303 670 -152 188 -347 332 -573
424 -78 32 -218 70 -320 87 -58 10 -454 13 -1758 13 -926 1 -1684 1 -1685 0z
m623 -1510 c14 -4 34 -9 45 -11 11 -2 22 -8 23 -13 2 -6 8 -8 12 -5 12 7 104
-39 155 -78 77 -58 142 -135 199 -234 77 -134 117 -280 121 -443 7 -267 -79
-504 -244 -670 -122 -123 -239 -178 -394 -184 -321 -14 -597 252 -672 648 -13
69 -14 273 -2 344 21 116 102 317 146 361 11 11 18 21 15 21 -14 0 66 87 122
134 67 55 147 100 194 110 3 1 25 7 50 14 73 19 171 22 230 6z m2245 4 c17 -1
36 -6 43 -11 6 -5 12 -7 12 -4 0 7 70 -16 110 -35 69 -33 162 -107 153 -121
-3 -6 -2 -7 4 -4 6 4 21 -6 34 -21 36 -40 102 -132 95 -132 -3 0 2 -9 11 -19
32 -39 90 -194 110 -301 2 -14 6 -85 8 -158 3 -147 -14 -251 -62 -371 -85
-215 -244 -378 -433 -442 -93 -32 -229 -32 -329 1 -300 96 -506 437 -496 822
3 115 10 158 41 264 27 94 91 222 144 286 49 59 108 118 120 118 5 0 13 6 17
13 13 23 61 49 74 41 7 -4 9 -3 6 3 -7 11 65 46 119 59 43 10 146 20 169 17
11 -2 34 -4 50 -5z m-1987 -2331 c39 -1 72 2 72 7 0 5 6 4 13 -2 8 -7 18 -7
27 -2 8 5 18 6 22 4 5 -3 48 -5 96 -4 85 2 117 1 175 -4 16 -1 30 1 33 5 2 4
19 3 38 -1 19 -4 39 -4 46 0 6 4 23 5 36 2 24 -4 23 -6 -29 -56 -52 -49 -117
-127 -117 -140 0 -4 -12 -24 -26 -46 l-26 -39 -281 -3 c-266 -3 -285 -4 -327
-25 -95 -46 -152 -133 -158 -243 -4 -64 -1 -83 19 -124 25 -54 77 -116 96
-116 7 0 13 -3 13 -8 0 -7 30 -21 85 -38 17 -5 208 -9 435 -8 399 1 406 1 454
24 103 47 165 140 171 253 2 42 7 61 15 59 6 -1 9 1 7 5 -6 9 10 31 36 52 14
11 20 11 35 0 15 -13 16 -12 3 4 -16 20 -19 19 86 22 l82 3 9 -42 c9 -42 8
-159 -3 -211 -36 -190 -195 -362 -392 -426 -65 -21 -86 -22 -488 -23 -301 -1
-440 2 -489 11 -211 39 -380 195 -441 408 -16 57 -22 190 -11 244 15 69 64
191 77 191 5 0 9 6 9 14 0 8 31 46 69 85 105 105 224 157 396 174 17 1 37 1
45 -1 8 -1 48 -3 88 -5z m1126 1 c2 4 41 5 86 2 45 -3 87 -2 93 2 7 3 30 3 52
0 22 -4 67 -5 100 -2 33 3 79 2 103 -1 23 -3 42 -2 42 2 0 5 6 7 13 4 6 -2 52
-6 102 -10 95 -6 183 -35 260 -84 45 -29 135 -110 135 -122 0 -4 11 -20 25
-35 14 -15 23 -34 20 -41 -2 -8 -1 -12 4 -9 13 8 52 -95 67 -174 40 -224 -83
-478 -286 -584 -123 -65 -155 -69 -535 -71 -195 0 -345 3 -352 8 -8 6 -13 6
-13 0 0 -5 -7 -10 -15 -10 -8 0 -15 4 -15 9 0 4 4 8 8 8 14 0 124 115 147 154
12 20 25 33 30 28 4 -4 5 -2 2 4 -4 6 4 27 16 45 l23 34 234 1 c225 0 311 9
345 36 50 38 87 81 108 124 22 43 25 62 23 125 -4 94 -6 100 -44 154 -41 59
-102 101 -163 114 -30 7 -191 11 -408 11 -412 0 -428 -2 -509 -75 -59 -53 -93
-125 -94 -199 -2 -97 -62 -146 -184 -149 -73 -2 -77 -1 -86 23 -30 79 1 320
45 351 5 3 9 10 10 15 1 5 5 8 9 7 4 -2 5 3 2 11 -7 18 38 86 53 81 7 -2 10 2
7 9 -5 12 79 90 131 124 24 15 86 44 100 46 6 1 20 8 33 14 18 10 22 10 22 0
0 -10 2 -10 9 0 5 8 40 15 97 19 49 3 91 7 93 9 1 1 14 -1 27 -6 13 -5 25 -6
28 -2z"/>
</g>
</svg>
